<svg id="Layer_1" data-name="Layer 1" xmlns="http://www.w3.org/2000/svg" viewBox="0 0 350 167.68"><defs><style>.cls-1{fill:#231f20;}.cls-2{fill:#b12028;}.cls-3{fill:#0a0203;}.cls-4,.cls-7,.cls-8{fill:none;stroke-miterlimit:10;}.cls-4{stroke:#bcbec0;}.cls-5{fill:#a7a9ac;}.cls-6{fill:#999;}.cls-7{stroke:#a7a9ac;}.cls-8{stroke:#fff;}</style></defs><path class="cls-1" d="M42.43,39.31h4.88l10.1,26.23H52.49L50,58.6H39.56L37.1,65.54H32.37Zm-1.62,15.8h8L44.89,43.83h-.11Z"/><path class="cls-1" d="M60.75,46.55h4v2.64h.11a10.88,10.88,0,0,1,1-1.28,5.81,5.81,0,0,1,1.23-1,6.15,6.15,0,0,1,1.56-.65,7.74,7.74,0,0,1,2-.23,6.79,6.79,0,0,1,3.21.77A4.34,4.34,0,0,1,76,49.19a8.39,8.39,0,0,1,2.46-2.31A6.68,6.68,0,0,1,81.94,46a6.93,6.93,0,0,1,4.69,1.46Q88.29,49,88.3,52.43V65.54H84.11V54.44c0-.75,0-1.45-.07-2.07a4.2,4.2,0,0,0-.43-1.62,2.38,2.38,0,0,0-1-1,4.08,4.08,0,0,0-1.91-.37,3.56,3.56,0,0,0-3.09,1.32,6.37,6.37,0,0,0-.95,3.75V65.54H72.43V53.34a5.22,5.22,0,0,0-.71-3,3,3,0,0,0-2.63-1,3.87,3.87,0,0,0-2.88,1.29,4.67,4.67,0,0,0-.92,1.54,5.91,5.91,0,0,0-.35,2.09V65.54H60.75Z"/><path class="cls-1" d="M113.61,46.55h3.93v3.67h.08a4.28,4.28,0,0,1,.71-1.5,7.09,7.09,0,0,1,1.29-1.34,6.49,6.49,0,0,1,1.67-1,5.05,5.05,0,0,1,1.87-.36c.49,0,.83,0,1,0l.57.08v4c-.29,0-.59-.1-.9-.13a6.8,6.8,0,0,0-.9-.06,4.81,4.81,0,0,0-2,.42,4.69,4.69,0,0,0-1.63,1.25,6,6,0,0,0-1.11,2,8.82,8.82,0,0,0-.4,2.79v9h-4.19Z"/><path class="cls-1" d="M128.4,39.31h4.18v4H128.4Zm0,7.24h4.18v19H128.4Z"/><path class="cls-1" d="M149.82,52.9a3.93,3.93,0,0,0-1.41-2.66,4.62,4.62,0,0,0-2.92-.9,5.88,5.88,0,0,0-1.73.28,4.11,4.11,0,0,0-1.69,1,5.82,5.82,0,0,0-1.28,2.1,10,10,0,0,0-.52,3.5,10.57,10.57,0,0,0,.28,2.36,6.43,6.43,0,0,0,.88,2.09A4.93,4.93,0,0,0,143,62.18a4.46,4.46,0,0,0,2.32.56,4.22,4.22,0,0,0,3-1.13,5.31,5.31,0,0,0,1.48-3.2H154a9.22,9.22,0,0,1-2.81,5.68,8.57,8.57,0,0,1-5.89,2,9.73,9.73,0,0,1-3.95-.75,8.42,8.42,0,0,1-2.89-2.06,8.87,8.87,0,0,1-1.78-3.1,12.26,12.26,0,0,1-.6-3.9,13,13,0,0,1,.59-4A9,9,0,0,1,138.44,49a8.19,8.19,0,0,1,2.92-2.17,10,10,0,0,1,4.09-.78,11.5,11.5,0,0,1,3.14.42,8.14,8.14,0,0,1,2.65,1.27,6.76,6.76,0,0,1,1.89,2.12,7.36,7.36,0,0,1,.88,3Z"/><path class="cls-1" d="M173.51,61.31a2.25,2.25,0,0,0,.2,1.1.86.86,0,0,0,.79.33h.44a2.68,2.68,0,0,0,.59-.07v2.9l-.57.17-.72.16a6.13,6.13,0,0,1-.73.11,5.18,5.18,0,0,1-.63,0,4.1,4.1,0,0,1-2.13-.51,2.6,2.6,0,0,1-1.1-1.8,7.49,7.49,0,0,1-3.06,1.76,12,12,0,0,1-3.51.55,8.66,8.66,0,0,1-2.46-.35,6.33,6.33,0,0,1-2.08-1A5,5,0,0,1,157.11,63a5.39,5.39,0,0,1-.53-2.45,5.61,5.61,0,0,1,.64-2.86,4.83,4.83,0,0,1,1.69-1.73,8,8,0,0,1,2.35-.9c.87-.18,1.75-.32,2.63-.42a20.42,20.42,0,0,1,2.16-.31,10.73,10.73,0,0,0,1.82-.31,2.78,2.78,0,0,0,1.25-.68,1.87,1.87,0,0,0,.46-1.38,2.11,2.11,0,0,0-.39-1.32,2.51,2.51,0,0,0-.95-.79,4.18,4.18,0,0,0-1.27-.37,10.22,10.22,0,0,0-1.32-.09,5.33,5.33,0,0,0-2.9.73,2.88,2.88,0,0,0-1.29,2.28h-4.18a6.23,6.23,0,0,1,.88-3.05,6.15,6.15,0,0,1,2-1.94,8.19,8.19,0,0,1,2.7-1,15.79,15.79,0,0,1,3.09-.29,12.65,12.65,0,0,1,2.75.29,7.86,7.86,0,0,1,2.44,1A5.3,5.3,0,0,1,172.85,49a4.7,4.7,0,0,1,.66,2.55ZM169.32,56a5.07,5.07,0,0,1-2.35.76c-.93.08-1.86.21-2.79.38a8.87,8.87,0,0,0-1.28.32,3.6,3.6,0,0,0-1.11.55,2.4,2.4,0,0,0-.75.91,3.2,3.2,0,0,0-.27,1.38,1.76,1.76,0,0,0,.4,1.18,3.12,3.12,0,0,0,1,.75,4.55,4.55,0,0,0,1.25.38,6.64,6.64,0,0,0,2.74-.07,5,5,0,0,0,1.52-.62,4,4,0,0,0,1.19-1.12,2.84,2.84,0,0,0,.48-1.67Z"/><path class="cls-1" d="M178.71,46.55h4v2.79l.07.07a7,7,0,0,1,2.5-2.47,6.61,6.61,0,0,1,3.41-.9,7.08,7.08,0,0,1,4.92,1.61,6.19,6.19,0,0,1,1.8,4.85v13H191.2V53.6a5.15,5.15,0,0,0-1-3.25,3.49,3.49,0,0,0-2.75-1,4.5,4.5,0,0,0-1.91.39,4.12,4.12,0,0,0-1.44,1.06,5,5,0,0,0-.91,1.6,5.69,5.69,0,0,0-.33,1.94V65.54h-4.19Z"/><path class="cls-1" d="M46.67,80.68a8.39,8.39,0,0,1,2.81,2.17A9.25,9.25,0,0,1,51.2,86a13,13,0,0,1,0,7.75A9.39,9.39,0,0,1,49.48,97a8.33,8.33,0,0,1-2.81,2.15,9.73,9.73,0,0,1-7.68,0A8.2,8.2,0,0,1,36.19,97a9.41,9.41,0,0,1-1.73-3.18,13,13,0,0,1,0-7.75,9.27,9.27,0,0,1,1.73-3.17A8.25,8.25,0,0,1,39,80.68a9.51,9.51,0,0,1,7.68,0Zm-6.74,1.84a6.28,6.28,0,0,0-2.07,1.83,8.41,8.41,0,0,0-1.25,2.59,10.61,10.61,0,0,0,0,5.91,8.3,8.3,0,0,0,1.25,2.59,6.42,6.42,0,0,0,2.07,1.84,6.36,6.36,0,0,0,5.8,0,6.36,6.36,0,0,0,2.08-1.84,8.3,8.3,0,0,0,1.25-2.59,10.61,10.61,0,0,0,0-5.91,8.41,8.41,0,0,0-1.25-2.59,6.22,6.22,0,0,0-2.08-1.83,6.36,6.36,0,0,0-5.8,0Z"/><path class="cls-1" d="M59.24,82.37v17H56.93v-17H53.7v-2h3.23V78.7a13,13,0,0,1,.18-2.24,4.25,4.25,0,0,1,.7-1.77,3.32,3.32,0,0,1,1.41-1.13,5.64,5.64,0,0,1,2.3-.41,9.39,9.39,0,0,1,.95,0c.3,0,.63.06,1,.11v2l-.88-.13a7.34,7.34,0,0,0-.81-.05,3,3,0,0,0-1.46.29,1.81,1.81,0,0,0-.76.79,3,3,0,0,0-.27,1.16c0,.44,0,.92,0,1.43v1.65H63v2Z"/><path class="cls-1" d="M95.91,57.13a7.27,7.27,0,0,0,.31,2.13,5.31,5.31,0,0,0,.93,1.8,4.71,4.71,0,0,0,1.58,1.23,5.33,5.33,0,0,0,2.28.45,5.1,5.1,0,0,0,3-.78,4.75,4.75,0,0,0,1.67-2.37h4a7.92,7.92,0,0,1-1.14,2.75,7.7,7.7,0,0,1-1.94,2A8.42,8.42,0,0,1,104,65.63a10.38,10.38,0,0,1-3,.42,9.9,9.9,0,0,1-4-.74,8.13,8.13,0,0,1-2.92-2.05,8.76,8.76,0,0,1-1.79-3.16,12.64,12.64,0,0,1-.61-4,11.42,11.42,0,0,1,.64-3.84A9.8,9.8,0,0,1,94.2,49a8.68,8.68,0,0,1,2.88-2.19,8.88,8.88,0,0,1,3.82-.8,8.57,8.57,0,0,1,4,.93,8.93,8.93,0,0,1,3,2.48,10,10,0,0,1,1.7,3.54,10.84,10.84,0,0,1,.28,4.14Zm9.76-2.76a6.87,6.87,0,0,0-.42-1.91,5.22,5.22,0,0,0-1-1.6,4.89,4.89,0,0,0-1.47-1.1,4.37,4.37,0,0,0-1.93-.42,5,5,0,0,0-2,.39,4.42,4.42,0,0,0-1.54,1.06,5.12,5.12,0,0,0-1,1.6,5.39,5.39,0,0,0-.42,2Z"/><path class="cls-1" d="M85.28,73.15q6,.15,9,3.36t3,9.75q0,6.54-3,9.75t-9,3.36H76.21V73.15ZM84,97.24a17.3,17.3,0,0,0,4.86-.6,7.85,7.85,0,0,0,3.36-1.93,8,8,0,0,0,2-3.42,20.71,20.71,0,0,0,0-10.06,8,8,0,0,0-2-3.41,7.65,7.65,0,0,0-3.36-1.93A16.91,16.91,0,0,0,84,75.28H78.7v22Z"/><path class="cls-1" d="M114.32,99.37V96h-.07a6.62,6.62,0,0,1-2.66,2.92,7.66,7.66,0,0,1-3.88,1,8.38,8.38,0,0,1-3.06-.5A5.12,5.12,0,0,1,102.59,98a5.75,5.75,0,0,1-1.16-2.24,11.5,11.5,0,0,1-.36-3V80.42h2.31V92.76a6.19,6.19,0,0,0,1.19,3.89c.75.89,2,1.33,3.88,1.33a4.88,4.88,0,0,0,2.57-.65,5.29,5.29,0,0,0,1.76-1.7,7.64,7.64,0,0,0,1-2.44,12.06,12.06,0,0,0,.33-2.81v-10h2.31v19Z"/><path class="cls-1" d="M123.32,73.15V84h.07a5.76,5.76,0,0,1,1-1.8,6.51,6.51,0,0,1,1.56-1.3,6.82,6.82,0,0,1,1.91-.79,8.55,8.55,0,0,1,2.06-.26,8.21,8.21,0,0,1,3.76.81,7.68,7.68,0,0,1,2.66,2.19A9.17,9.17,0,0,1,138,86.06a14.44,14.44,0,0,1,0,7.68,9.26,9.26,0,0,1-1.58,3.19,7.51,7.51,0,0,1-2.66,2.17,8.47,8.47,0,0,1-3.76.79,8,8,0,0,1-4.13-1.07,6,6,0,0,1-2.63-3h-.07v3.6H121V73.15ZM135.83,87a8.28,8.28,0,0,0-1.11-2.59,6,6,0,0,0-1.93-1.86,5.37,5.37,0,0,0-2.82-.71,6.33,6.33,0,0,0-3.11.71,6.12,6.12,0,0,0-2,1.86A7.5,7.5,0,0,0,123.67,87a12.36,12.36,0,0,0,0,5.84,7.58,7.58,0,0,0,1.14,2.59,6.1,6.1,0,0,0,2,1.85A6.22,6.22,0,0,0,130,98a5.28,5.28,0,0,0,2.82-.72,6,6,0,0,0,1.93-1.85,8.39,8.39,0,0,0,1.11-2.59,12.71,12.71,0,0,0,0-5.84Z"/><path class="cls-1" d="M142.75,83.36a5.37,5.37,0,0,1,1.59-2,6.69,6.69,0,0,1,2.37-1.14,11.76,11.76,0,0,1,3-.37,13.15,13.15,0,0,1,2.5.24,6.07,6.07,0,0,1,2.24.9,4.93,4.93,0,0,1,1.62,1.86,6.75,6.75,0,0,1,.62,3.1V96a1.22,1.22,0,0,0,1.36,1.4,1.78,1.78,0,0,0,.74-.15v2l-.72.11c-.21,0-.47,0-.79,0a3.44,3.44,0,0,1-1.41-.24,1.76,1.76,0,0,1-.83-.68,2.45,2.45,0,0,1-.39-1,9.21,9.21,0,0,1-.09-1.34h-.07a16.21,16.21,0,0,1-1.27,1.63,6.25,6.25,0,0,1-1.43,1.2,6.92,6.92,0,0,1-1.8.73,9.93,9.93,0,0,1-2.41.26,9.33,9.33,0,0,1-2.47-.32,5.23,5.23,0,0,1-2-1,4.63,4.63,0,0,1-1.36-1.72,5.78,5.78,0,0,1-.5-2.48,5,5,0,0,1,.88-3.11,5.63,5.63,0,0,1,2.33-1.7,13.49,13.49,0,0,1,3.27-.83l3.69-.46q.74-.07,1.29-.18a2.27,2.27,0,0,0,.92-.39,1.83,1.83,0,0,0,.57-.75,3.33,3.33,0,0,0,.2-1.25,4.22,4.22,0,0,0-.39-1.93,3,3,0,0,0-1.06-1.19,4.42,4.42,0,0,0-1.58-.61,10.69,10.69,0,0,0-1.93-.16,5.83,5.83,0,0,0-3.6,1.05,4.08,4.08,0,0,0-1.47,3.36h-2.31A7.66,7.66,0,0,1,142.75,83.36ZM154.32,89a1.32,1.32,0,0,1-.85.58,7.73,7.73,0,0,1-1.1.26c-1,.17-2,.33-3,.46a16.23,16.23,0,0,0-2.85.61,5.62,5.62,0,0,0-2.11,1.15,2.78,2.78,0,0,0-.83,2.15,3.38,3.38,0,0,0,.35,1.56,3.86,3.86,0,0,0,.94,1.18,4.1,4.1,0,0,0,1.36.75,5,5,0,0,0,1.58.26,7.94,7.94,0,0,0,2.53-.41,6.28,6.28,0,0,0,2.11-1.17,5.82,5.82,0,0,0,1.44-1.88,5.69,5.69,0,0,0,.53-2.49V89Z"/><path class="cls-1" d="M164.85,73.15v3.71h-2.32V73.15Zm0,7.27v19h-2.32v-19Z"/><path class="cls-2" d="M31.61,123.41s18.57,4.65,51.16,3.38c2.21-.09,4.47-.2,6.81-.34,23.5-1.45,53.37-6,88.18-17,82.07-25.9,146.15-2.53,146.15-2.53S261.65,92.2,177.76,122.39c-32.72,11.77-65,13.35-90.95,11.44q-3.45-.26-6.74-.59c-29.08-2.91-48.53-9.83-48.53-9.83"/><path class="cls-3" d="M213.84,56.8a5.92,5.92,0,0,0,.51,2.57,4.62,4.62,0,0,0,1.44,1.74,6.13,6.13,0,0,0,2.11,1,10.11,10.11,0,0,0,2.59.31,8.11,8.11,0,0,0,2.57-.35,5.24,5.24,0,0,0,1.72-.89,3.32,3.32,0,0,0,1-1.27,3.91,3.91,0,0,0,.29-1.45,3.07,3.07,0,0,0-.68-2.22,3.81,3.81,0,0,0-1.48-1,30.66,30.66,0,0,0-3.25-1c-1.24-.3-2.76-.7-4.58-1.19a9.74,9.74,0,0,1-2.81-1.16,6.77,6.77,0,0,1-1.78-1.59,5.6,5.6,0,0,1-.93-1.88,7.24,7.24,0,0,1-.28-2,6.83,6.83,0,0,1,.83-3.43,7.41,7.41,0,0,1,2.18-2.41,9.91,9.91,0,0,1,3.09-1.41,13.33,13.33,0,0,1,3.49-.46,13.87,13.87,0,0,1,3.87.53,9.72,9.72,0,0,1,3.2,1.6,7.94,7.94,0,0,1,2.18,2.63,7.72,7.72,0,0,1,.81,3.61H225.3a4.42,4.42,0,0,0-1.73-3.58,6.92,6.92,0,0,0-3.93-1,8.54,8.54,0,0,0-1.65.16,5.42,5.42,0,0,0-1.54.55,3.43,3.43,0,0,0-1.16,1.05A3.19,3.19,0,0,0,215.7,48,5.6,5.6,0,0,0,218,49.23l1.16.31,2.26.61,2.44.64,1.71.46a7.93,7.93,0,0,1,2.24,1.1,7.36,7.36,0,0,1,1.6,1.6,6.8,6.8,0,0,1,.95,1.93,6.94,6.94,0,0,1,.31,2,7.43,7.43,0,0,1-.9,3.77,7.62,7.62,0,0,1-2.37,2.55A10.17,10.17,0,0,1,224,65.7a15.79,15.79,0,0,1-3.82.46,15.59,15.59,0,0,1-4.22-.55,9.93,9.93,0,0,1-3.45-1.69A8.27,8.27,0,0,1,210.17,61a9.63,9.63,0,0,1-.92-4.2Z"/><path class="cls-3" d="M247,52.9a3.9,3.9,0,0,0-1.42-2.66,4.6,4.6,0,0,0-2.92-.9,5.82,5.82,0,0,0-1.72.28,4,4,0,0,0-1.69,1,6,6,0,0,0-1.29,2.1,11.29,11.29,0,0,0-.23,5.86,6.22,6.22,0,0,0,.88,2.09,4.73,4.73,0,0,0,1.56,1.49,4.42,4.42,0,0,0,2.31.56,4.22,4.22,0,0,0,3-1.13,5.31,5.31,0,0,0,1.49-3.2h4.18a9.21,9.21,0,0,1-2.8,5.68,8.6,8.6,0,0,1-5.9,2,9.77,9.77,0,0,1-4-.75,8.38,8.38,0,0,1-2.88-2.06,8.71,8.71,0,0,1-1.78-3.1,12.26,12.26,0,0,1-.61-3.9,13.34,13.34,0,0,1,.59-4A9.19,9.19,0,0,1,235.65,49a8.36,8.36,0,0,1,2.92-2.17,10,10,0,0,1,4.1-.78,11.5,11.5,0,0,1,3.14.42,8.08,8.08,0,0,1,2.64,1.27,6.76,6.76,0,0,1,1.89,2.12,7.22,7.22,0,0,1,.88,3Z"/><path class="cls-3" d="M254.82,39.31H259v9.74h.07a6.07,6.07,0,0,1,2.3-2.15,6.71,6.71,0,0,1,3.4-.86,7.08,7.08,0,0,1,4.92,1.61,6.19,6.19,0,0,1,1.8,4.85v13h-4.19V53.6a5.15,5.15,0,0,0-1-3.25,3.46,3.46,0,0,0-2.75-1,4.5,4.5,0,0,0-1.91.39,4.08,4.08,0,0,0-1.43,1.06,5,5,0,0,0-.92,1.6,5.69,5.69,0,0,0-.33,1.94V65.54h-4.19Z"/><path class="cls-3" d="M284.79,66.05a10.39,10.39,0,0,1-4.06-.75,8.63,8.63,0,0,1-3-2.08,8.84,8.84,0,0,1-1.87-3.16,12.76,12.76,0,0,1,0-8,8.93,8.93,0,0,1,1.87-3.16,8.6,8.6,0,0,1,3-2.07,11.36,11.36,0,0,1,8.12,0,8.6,8.6,0,0,1,3,2.07A8.93,8.93,0,0,1,293.73,52a12.95,12.95,0,0,1,0,8,8.84,8.84,0,0,1-1.87,3.16,8.63,8.63,0,0,1-3,2.08A10.39,10.39,0,0,1,284.79,66.05Zm0-3.31a4.79,4.79,0,0,0,2.42-.58,5,5,0,0,0,1.69-1.55,6.75,6.75,0,0,0,1-2.14,9.72,9.72,0,0,0,0-4.87,6.6,6.6,0,0,0-1-2.15,5.16,5.16,0,0,0-1.69-1.52,5.26,5.26,0,0,0-4.84,0,5.16,5.16,0,0,0-1.69,1.52,6.6,6.6,0,0,0-1,2.15,9.72,9.72,0,0,0,0,4.87,6.75,6.75,0,0,0,1,2.14,5,5,0,0,0,1.69,1.55A4.79,4.79,0,0,0,284.79,62.74Z"/><path class="cls-3" d="M306.75,66.05a10.39,10.39,0,0,1-4.06-.75,8.63,8.63,0,0,1-3-2.08,8.84,8.84,0,0,1-1.87-3.16,12.76,12.76,0,0,1,0-8,8.93,8.93,0,0,1,1.87-3.16,8.6,8.6,0,0,1,3-2.07,11.36,11.36,0,0,1,8.12,0,8.7,8.7,0,0,1,3,2.07A8.93,8.93,0,0,1,315.69,52a12.95,12.95,0,0,1,0,8,8.84,8.84,0,0,1-1.87,3.16,8.72,8.72,0,0,1-3,2.08A10.39,10.39,0,0,1,306.75,66.05Zm0-3.31a4.79,4.79,0,0,0,2.42-.58,5,5,0,0,0,1.69-1.55,6.75,6.75,0,0,0,1-2.14,9.72,9.72,0,0,0,0-4.87,6.6,6.6,0,0,0-1-2.15,5.16,5.16,0,0,0-1.69-1.52,5.26,5.26,0,0,0-4.84,0,5.16,5.16,0,0,0-1.69,1.52,6.6,6.6,0,0,0-1,2.15,9.72,9.72,0,0,0,0,4.87,6.75,6.75,0,0,0,1,2.14,5,5,0,0,0,1.69,1.55A4.79,4.79,0,0,0,306.75,62.74Z"/><path class="cls-3" d="M320.12,39.31h4.18V65.54h-4.18Z"/></svg>